<svg width="32" height="32" viewBox="0 0 32 32" fill="none" xmlns="http://www.w3.org/2000/svg">
    <path fill-rule="evenodd" clip-rule="evenodd" d="M6.6 25.4H17C22.7438 25.4 27.4 20.7438 27.4 15C27.4 9.25624 22.7438 4.6 17 4.6C11.2562 4.6 6.6 9.25624 6.6 15V25.4ZM17 2C9.8203 2 4 7.8203 4 15V25.6364C4 26.9418 5.05824 28 6.36364 28H17C24.1797 28 30 22.1797 30 15C30 7.8203 24.1797 2 17 2Z" fill="currentColor"/>
    <path fill-rule="evenodd" clip-rule="evenodd" d="M10.2424 13.7576C9.55623 13.7576 9 14.3139 9 15C9 15.6861 9.55623 16.2424 10.2424 16.2424H15.7576L15.7576 21.7576C15.7576 22.4438 16.3139 23 17 23C17.6861 23 18.2424 22.4438 18.2424 21.7576V16.2424H23.7576C24.4438 16.2424 25 15.6861 25 15C25 14.3139 24.4438 13.7576 23.7576 13.7576H18.2424V8.24237C18.2424 7.55623 17.6861 7 17 7C16.3139 7 15.7576 7.55623 15.7576 8.24237L15.7576 13.7576L10.2424 13.7576Z" fill="currentColor"/>
</svg>
