<svg width="32" height="32" viewBox="0 0 32 32" fill="currentColor" xmlns="http://www.w3.org/2000/svg">
    <path d="M17 2C9.8203 2 4 7.8203 4 15V25.8182C4 27.0232 4.97683 28 6.18182 28H17C24.1797 28 30 22.1797 30 15C30 7.8203 24.1797 2 17 2ZM9 15C9 14.3139 9.55623 13.7576 10.2424 13.7576H15.7576V8.24237C15.7576 7.55623 16.3139 7 17 7C17.6861 7 18.2424 7.55623 18.2424 8.24237V13.7576H23.7576C24.4438 13.7576 25 14.3139 25 15C25 15.6861 24.4438 16.2424 23.7576 16.2424H18.2424V21.7576C18.2424 22.4438 17.6861 23 17 23C16.3139 23 15.7576 22.4438 15.7576 21.7576L15.7576 16.2424H10.2424C9.55623 16.2424 9 15.6861 9 15Z"/>
</svg>
