<svg xmlns="http://www.w3.org/2000/svg" fill="none" aria-hidden="true" viewBox="0 0 24 25">
    <path stroke="currentcolor" stroke-linecap="round" stroke-width="1.496" d="M10.46 11.28v5.85"/>
    <path stroke="currentColor" stroke-linecap="round" stroke-width="1.496" d="M13.697 14.204h-6.4"/>
    <path stroke="currentColor" stroke-linecap="round" stroke-linejoin="round" stroke-miterlimit="10" stroke-width="1.496" d="M21 16.604v1.125c0 .6-.527 1.125-1.13 1.125h-1.882m3.012-6v-3m0-3.9V4.83c0-.6-.527-1.125-1.13-1.125h-1.129m-3.915 0h-3.84m-2.785 0H7.07c-.602 0-1.129.525-1.129 1.125v1.875m-1.581 15h12.272c.753 0 1.355-.6 1.355-1.35v-12.3c0-.75-.602-1.35-1.355-1.35H4.361c-.753 0-1.355.6-1.355 1.35V20.28c-.076.825.602 1.425 1.355 1.425z"/>
</svg>
