<svg xmlns="http://www.w3.org/2000/svg" fill="currentColor" aria-hidden="true" viewBox="0 0 32 32">
    <path d="M22.12 30.47a1.48 1.48 0 01-1-.42 1.44 1.44 0 01-.4-1v-5.49H15.3a1.27 1.27 0 01-.58-.07 1.36 1.36 0 01-.5-.3 1.43 1.43 0 01-.33-.47 1.41 1.41 0 010-1.14 1.43 1.43 0 01.33-.47 1.36 1.36 0 01.5-.3 1.43 1.43 0 01.58-.07h5.43v-5.47a1.29 1.29 0 01.07-.58 1.49 1.49 0 01.29-.5 1.29 1.29 0 01.47-.33 1.39 1.39 0 01.57-.12 1.42 1.42 0 01.57.12 1.34 1.34 0 01.76.83 1.45 1.45 0 01.07.58v5.47H29a1.43 1.43 0 01.58.07 1.25 1.25 0 01.49.3 1.32 1.32 0 01.34.47 1.41 1.41 0 010 1.14 1.32 1.32 0 01-.34.47 1.25 1.25 0 01-.49.3 1.27 1.27 0 01-.58.07h-5.47v5.49a1.24 1.24 0 01-.11.54 1.41 1.41 0 01-.3.46 1.44 1.44 0 01-.46.31 1.41 1.41 0 01-.54.11zm-7-3.47H12.8a1.31 1.31 0 00-.93.39 1.36 1.36 0 00-.39.95 1.34 1.34 0 00.39.95 1.28 1.28 0 00.93.4h2.27a1.26 1.26 0 00.93-.4 1.34 1.34 0 00.39-.95 1.39 1.39 0 00-.38-.95 1.33 1.33 0 00-.94-.39zm-7 0h-3v-2.24a1.34 1.34 0 00-.38-.93 1.29 1.29 0 00-.92-.39 1.23 1.23 0 00-.92.39 1.32 1.32 0 00-.38.93v2.55a2.51 2.51 0 00.16.9 2.47 2.47 0 00.49.77 2.41 2.41 0 00.75.52 2.25 2.25 0 00.88.19h3.43a1.27 1.27 0 00.77-.41 1.34 1.34 0 00.39-1 1.4 1.4 0 00-.39-.9 1.31 1.31 0 00-.89-.38zM3.8 20.51a1.27 1.27 0 00.9-.38 1.41 1.41 0 00.4-.92V13a1.35 1.35 0 00-.38-.94 1.29 1.29 0 00-.92-.39 1.27 1.27 0 00-.92.39 1.37 1.37 0 00-.38.94v6.21a1.35 1.35 0 00.39.91 1.31 1.31 0 00.91.39zm24-8.83a1.29 1.29 0 00-.92.39 1.35 1.35 0 00-.38.94v2.29a1.25 1.25 0 00.1.51 1.27 1.27 0 00.28.44 1.37 1.37 0 00.42.29 1.25 1.25 0 00.5.11 1.26 1.26 0 00.51-.11 1.31 1.31 0 00.43-.31 1.48 1.48 0 00.28-.45 1.35 1.35 0 00.08-.52V13a1.35 1.35 0 00-.38-.94 1.29 1.29 0 00-.97-.38zM28.88 4a2.36 2.36 0 00-.49-.76 2.26 2.26 0 00-.74-.52 2.44 2.44 0 00-.88-.19h-3.33a1.28 1.28 0 00-.93.4 1.34 1.34 0 00-.39.95 1.36 1.36 0 00.39 1 1.31 1.31 0 00.93.39h3v2.18a1.29 1.29 0 00.1.51 1.23 1.23 0 00.28.43 1.22 1.22 0 00.92.4A1.32 1.32 0 0029 8a1.29 1.29 0 00.1-.51V4.9a2.52 2.52 0 00-.22-.9zM8.11 2.53H4.78a2.44 2.44 0 00-.88.19 2.26 2.26 0 00-.74.52 2.36 2.36 0 00-.49.76 2.32 2.32 0 00-.17.9v2.55a1.29 1.29 0 00.1.55 1.11 1.11 0 00.28.43 1.22 1.22 0 00.92.4 1.22 1.22 0 00.92-.4A1.23 1.23 0 005 8a1.49 1.49 0 00.1-.51V5.22h3a1.31 1.31 0 00.9-.39 1.36 1.36 0 00.39-1 1.34 1.34 0 00-.39-.9 1.28 1.28 0 00-.89-.4zm10.56 0H12.8a1.28 1.28 0 00-.93.4 1.34 1.34 0 00-.39.95 1.36 1.36 0 00.39 1 1.31 1.31 0 00.93.39h5.87a1.33 1.33 0 00.93-.39 1.36 1.36 0 00.39-1 1.34 1.34 0 00-.39-.95 1.3 1.3 0 00-.93-.4z"/>
</svg>
