<svg xmlns="http://www.w3.org/2000/svg" aria-hidden="true" viewBox="0 0 32 32">
    <path fill="currentColor" d="M19.89 29A6.3 6.3 0 0116 27.61 6.3 6.3 0 0112.11 29C7.92 29 3.5 21.3 3.5 14a7.76 7.76 0 014.95-7.16 5.55 5.55 0 01-.64-2.59 1 1 0 011-1h2.26a5.85 5.85 0 014.46 2A3.75 3.75 0 0118.2 3a1 1 0 011.18.75A1 1 0 0118.63 5 2.34 2.34 0 0017 7.12a8 8 0 013.57-.84A7.84 7.84 0 0128.5 14c0 5.52-4.25 15-8.61 15zM16 25.31a1 1 0 01.7.3A4.46 4.46 0 0019.89 27c2.67 0 6.65-7.77 6.65-13a5.88 5.88 0 00-5.95-5.79 6 6 0 00-3.95 1.47 1 1 0 01-.47.22 1.17 1.17 0 01-.26 0h-2.27a5.9 5.9 0 01-3.92-1.42A5.81 5.81 0 005.46 14c0 6.7 4.15 13 6.65 13a4.46 4.46 0 003.19-1.41 1 1 0 01.7-.28zM9.91 5.23A3.85 3.85 0 0013.64 8h1.15a3.85 3.85 0 00-3.73-2.77z"/>
</svg>
