<svg xmlns="http://www.w3.org/2000/svg" aria-hidden="true" viewBox="0 0 32 32">
    <title>
        Bell
    </title>
    <path fill="none" stroke="currentColor" stroke-linecap="round" stroke-linejoin="round" stroke-width="2" d="M21.43 20.07l.89.89a2.5 2.5 0 010 3.53h0a2.49 2.49 0 01-3.53 0l-.89-.89zM7.42 5.42l-.36-.36a1.42 1.42 0 00-2 0h0a1.42 1.42 0 000 2l.36.36m0 0c-2.42 3.39-1.59 7.5 1.24 11.1q.16.21.33.45A13.75 13.75 0 019 23.3a9.84 9.84 0 002.09 4.14 1.81 1.81 0 002.58 0l7-6.88 6.86-7a1.81 1.81 0 000-2.58A9.84 9.84 0 0023.3 9 13.75 13.75 0 0119 7l-.45-.33C14.92 3.83 10.81 3 7.42 5.42l-.57.46a6.16 6.16 0 00-1 .94c-.2.29-.44.59-.43.6z"/>
</svg>
