<svg xmlns="http://www.w3.org/2000/svg" aria-hidden="true" viewBox="0 0 32 32">
    <path d="M19.3 18.21a1 1 0 01-1 1H9.7a1 1 0 010-2h8.6a1 1 0 011 1zM14.7 5h5.1a1 1 0 000-2h-5.1a1 1 0 000 2zm11.8-2H25a1 1 0 000 2h1.5a.54.54 0 01.5.5V7a1 1 0 002 0V5.5A2.54 2.54 0 0026.5 3zM29 21.2v1.5a2.53 2.53 0 01-2.5 2.5h-1.6v1a2.81 2.81 0 01-2.8 2.8H5.8A2.82 2.82 0 013 26.1V9.8A2.81 2.81 0 015.8 7H7V5.5A2.46 2.46 0 019.4 3H11a1 1 0 010 2H9.4c-.24 0-.4.26-.4.5V7h13.1a2.81 2.81 0 012.8 2.8v13.4h1.6a.54.54 0 00.5-.5v-1.5a1 1 0 012 0zM22.9 9.8a.79.79 0 00-.8-.8H5.8a.79.79 0 00-.8.8v16.3a.83.83 0 00.8.9h16.3a.79.79 0 00.8-.8zm5.1 1.4a1 1 0 00-1 1v4a1 1 0 102 0v-4a1 1 0 00-1-1z"/>
</svg>
