<svg xmlns="http://www.w3.org/2000/svg" aria-hidden="true" viewBox="0 0 32 32">
    <path fill="currentColor" d="M27 2.8H9.89a2.54 2.54 0 00-2.5 2.5v1.5H6.28a2.81 2.81 0 00-2.81 2.8v16.21a2.65 2.65 0 00.69 2.07 2.83 2.83 0 002.11.92h16.37a2.8 2.8 0 002.81-2.8v-1H27a2.54 2.54 0 002.51-2.5V5.3A2.54 2.54 0 0027 2.8zm-20.72 6h16.36a.8.8 0 01.81.8v8.5h-18V9.6a.8.8 0 01.83-.8zm-.64 17.73a.8.8 0 01-.17-.63v-5.8h11.1v6.7H6.28a.89.89 0 01-.64-.27zm17 .27h-4.07v-6.7h4.88V26a.8.8 0 01-.81.8zm4.83-20v15.7a.5.5 0 01-.47.5h-1.55V9.6a2.8 2.8 0 00-2.8-2.8H9.39V5.46A.66.66 0 0110 4.8h16.8a.67.67 0 01.67.66z"/>
</svg>
