<svg xmlns="http://www.w3.org/2000/svg" aria-hidden="true" viewBox="0 0 32 32">
    <path d="M19.26 18a1 1 0 01-1 1H15v2.9a1 1 0 01-2 0V19H9.73a1 1 0 010-2H13v-2.9a1 1 0 112 0V17h3.31a1 1 0 01.95 1zM14.65 5h5.12a1 1 0 000-2h-5.12a1 1 0 100 2zM29 21.2v1.5a2.54 2.54 0 01-2.51 2.5H25v1a2.8 2.8 0 01-2.8 2.8H5.81a2.9 2.9 0 01-2.11-.92A2.7 2.7 0 013 26V9.8A2.81 2.81 0 015.81 7h1.11V5.5A2.54 2.54 0 019.43 3h1.5a1 1 0 010 2h-1.5a.55.55 0 00-.51.5V7h13.26A2.8 2.8 0 0125 9.8v13.4h1.51a.55.55 0 00.51-.5v-1.5a1 1 0 012 0zM23 9.8a.79.79 0 00-.8-.8H5.81a.79.79 0 00-.8.8v16.3a.73.73 0 00.17.63.85.85 0 00.63.27h16.37a.79.79 0 00.8-.8zm5 1.4a1 1 0 00-1 1v4a1 1 0 102 0v-4a1 1 0 00-1-1zM26.49 3H25a1 1 0 000 2h1.5a.55.55 0 01.51.5V7a1 1 0 002 0V5.5A2.54 2.54 0 0026.49 3z"/>
</svg>
