<svg xmlns="http://www.w3.org/2000/svg" fill="none" aria-hidden="true" viewBox="0 0 32 33">
    <path stroke="currentColor" stroke-linecap="round" stroke-linejoin="round" stroke-miterlimit="10" stroke-width="2" d="M24.017 23.174h2.19c.996 0 1.793-.8 1.793-1.8v-15c0-1-.797-1.8-1.793-1.8H11.274c-.996 0-1.793.8-1.793 1.8v2.1m13.839 10.9H4.2m12.646 9.2v-9.2m-11.053 9.2h15.734c.996 0 1.793-.8 1.793-1.8v-15.8c0-1-.797-1.8-1.793-1.8H5.793c-.996-.1-1.793.8-1.793 1.8v15.8c0 1 .797 1.8 1.793 1.8z"/>
</svg>
