<svg width="32" height="32" viewBox="0 0 32 32" fill="none" xmlns="http://www.w3.org/2000/svg">
    <path d="M14.1494 21.4499C13.9763 21.4503 13.8052 21.413 13.6481 21.3404C13.4909 21.2679 13.3515 21.1619 13.2394 21.0299L10.1094 17.3299C9.90781 17.0894 9.8094 16.7789 9.83562 16.4661C9.86184 16.1533 10.0106 15.8636 10.2494 15.6599C10.3682 15.5573 10.5063 15.4794 10.6556 15.4308C10.8049 15.3822 10.9624 15.3639 11.1189 15.3769C11.2753 15.39 11.4276 15.4341 11.5668 15.5067C11.706 15.5794 11.8293 15.679 11.9294 15.7999L13.9894 18.2299C14.842 16.8897 15.7771 15.6039 16.7894 14.3799C17.8156 13.0606 18.9788 11.8539 20.2594 10.7799C20.3841 10.6851 20.5262 10.6159 20.6777 10.5761C20.8292 10.5363 20.987 10.5269 21.1422 10.5482C21.2973 10.5696 21.4467 10.6214 21.5818 10.7006C21.7169 10.7798 21.835 10.885 21.9294 11.0099C22.0237 11.1352 22.0923 11.2779 22.1313 11.4297C22.1703 11.5816 22.1788 11.7396 22.1565 11.8948C22.1342 12.05 22.0815 12.1993 22.0013 12.334C21.9212 12.4687 21.8152 12.5863 21.6894 12.6799C20.5714 13.6588 19.5439 14.7365 18.6194 15.8999C17.3466 17.4528 16.1997 19.1047 15.1894 20.8399C15.0968 21.0084 14.9647 21.1518 14.8044 21.2581C14.6442 21.3643 14.4607 21.4301 14.2694 21.4499H14.1494Z" fill="currentColor"/>
    <path fill-rule="evenodd" clip-rule="evenodd" d="M16 4.09999C15.2038 4.09999 14.427 4.17802 13.6764 4.32652C13.0804 4.44442 12.5017 4.05688 12.3838 3.46091C12.2659 2.86495 12.6535 2.28625 13.2494 2.16835C14.1399 1.99218 15.0597 1.89999 16 1.89999C16.9403 1.89999 17.8601 1.99218 18.7506 2.16835C19.3465 2.28625 19.7341 2.86495 19.6162 3.46091C19.4983 4.05688 18.9196 4.44442 18.3236 4.32652C17.573 4.17802 16.7961 4.09999 16 4.09999ZM9.69106 4.57769C10.029 5.08252 9.89377 5.76574 9.38894 6.10371C8.09076 6.97282 6.97282 8.09076 6.10371 9.38894C5.76574 9.89377 5.08252 10.029 4.57769 9.69106C4.07287 9.35308 3.93761 8.66986 4.27558 8.16504C5.30468 6.62789 6.62789 5.30468 8.16504 4.27558C8.66986 3.93761 9.35308 4.07287 9.69106 4.57769ZM22.3089 4.57769C22.6469 4.07287 23.3301 3.93761 23.8349 4.27558C25.3721 5.30468 26.6953 6.62789 27.7244 8.16504C28.0624 8.66986 27.9271 9.35308 27.4223 9.69106C26.9175 10.029 26.2343 9.89377 25.8963 9.38894C25.0272 8.09076 23.9092 6.97282 22.611 6.10371C22.1062 5.76574 21.971 5.08252 22.3089 4.57769ZM3.46091 12.3838C4.05688 12.5017 4.44442 13.0804 4.32652 13.6764C4.17802 14.427 4.09999 15.2038 4.09999 16C4.09999 16.7961 4.17802 17.573 4.32652 18.3236C4.44442 18.9196 4.05688 19.4983 3.46091 19.6162C2.86495 19.7341 2.28625 19.3465 2.16835 18.7506C1.99218 17.8601 1.89999 16.9403 1.89999 16C1.89999 15.0597 1.99218 14.1399 2.16835 13.2494C2.28625 12.6534 2.86495 12.2659 3.46091 12.3838ZM28.5391 12.3838C29.135 12.2659 29.7137 12.6535 29.8316 13.2494C30.0078 14.1399 30.1 15.0597 30.1 16C30.1 16.9403 30.0078 17.8601 29.8316 18.7506C29.7137 19.3465 29.135 19.7341 28.5391 19.6162C27.9431 19.4983 27.5556 18.9196 27.6735 18.3236C27.822 17.573 27.9 16.7961 27.9 16C27.9 15.2038 27.822 14.427 27.6735 13.6764C27.5556 13.0804 27.9431 12.5017 28.5391 12.3838ZM4.57769 22.3089C5.08252 21.971 5.76574 22.1062 6.10371 22.611C6.97282 23.9092 8.09076 25.0272 9.38894 25.8963C9.89377 26.2343 10.029 26.9175 9.69106 27.4223C9.35308 27.9271 8.66986 28.0624 8.16504 27.7244C6.62789 26.6953 5.30468 25.3721 4.27558 23.8349C3.93761 23.3301 4.07287 22.6469 4.57769 22.3089ZM27.4223 22.3089C27.9271 22.6469 28.0624 23.3301 27.7244 23.8349C26.6953 25.3721 25.3721 26.6953 23.8349 27.7244C23.3301 28.0624 22.6469 27.9271 22.3089 27.4223C21.971 26.9175 22.1062 26.2343 22.611 25.8963C23.9092 25.0272 25.0272 23.9092 25.8963 22.611C26.2343 22.1062 26.9175 21.971 27.4223 22.3089ZM12.3838 28.5391C12.5017 27.9431 13.0804 27.5556 13.6764 27.6735C14.427 27.822 15.2038 27.9 16 27.9C16.7961 27.9 17.573 27.822 18.3236 27.6735C18.9196 27.5556 19.4983 27.9431 19.6162 28.5391C19.7341 29.135 19.3465 29.7137 18.7506 29.8316C17.8601 30.0078 16.9403 30.1 16 30.1C15.0597 30.1 14.1399 30.0078 13.2494 29.8316C12.6534 29.7137 12.2659 29.135 12.3838 28.5391Z" fill="currentColor"/>
</svg>
