<svg xmlns="http://www.w3.org/2000/svg" aria-hidden="true" viewBox="0 0 32 32">
    <title>
        Box
    </title>
    <path fill="currentColor" d="M12.14,15.76a4.85,4.85,0,0,0-7.2-1.61V10.07a1,1,0,0,0-1.94,0v8H3a4.86,4.86,0,0,0,9.14,2.2,4.85,4.85,0,1,0,4.28-7.13A4.76,4.76,0,0,0,12.14,15.76ZM7.85,20.94A2.91,2.91,0,1,1,10.76,18a2.91,2.91,0,0,1-2.91,2.91m8.57,0A2.91,2.91,0,1,1,19.33,18a2.91,2.91,0,0,1-2.91,2.91m12.38.32a.92.92,0,0,1-.22,1.34,1.12,1.12,0,0,1-1.47-.18l-2.27-2.77-2.27,2.77a1.1,1.1,0,0,1-1.46.18.91.91,0,0,1-.22-1.34h0L23.52,18l-2.63-3.24h0a.92.92,0,0,1,.22-1.35,1.12,1.12,0,0,1,1.46.18h0l2.27,2.78,2.27-2.78h0a1.13,1.13,0,0,1,1.47-.18.92.92,0,0,1,.22,1.35L26.16,18l2.64,3.23"/>
</svg>
