<svg width="32" height="32" viewBox="0 0 32 32" fill="none" xmlns="http://www.w3.org/2000/svg">
    <path d="M16.0919 29.8516H12.5871C12.2516 29.8516 11.9298 29.7183 11.6926 29.4811C11.4553 29.2439 11.322 28.9221 11.322 28.5866C11.322 28.2511 11.4553 27.9293 11.6926 27.6921C11.9298 27.4548 12.2516 27.3215 12.5871 27.3215H16.0919C16.4274 27.3215 16.7491 27.4548 16.9864 27.6921C17.2236 27.9293 17.3569 28.2511 17.3569 28.5866C17.3569 28.9221 17.2236 29.2439 16.9864 29.4811C16.7491 29.7183 16.4274 29.8516 16.0919 29.8516ZM7.79653 29.8516H4.28137C3.97907 29.8489 3.68027 29.7867 3.40202 29.6685C3.12377 29.5503 2.87152 29.3784 2.65969 29.1628C2.44786 28.9471 2.28058 28.6918 2.16742 28.4114C2.05426 28.1311 1.99742 27.8312 2.00016 27.5289V24.8951C2.00016 24.5651 2.13125 24.2486 2.3646 24.0153C2.59795 23.7819 2.91445 23.6508 3.24446 23.6508C3.57447 23.6508 3.89096 23.7819 4.12431 24.0153C4.35766 24.2486 4.48876 24.5651 4.48876 24.8951V27.3215H7.81726C8.15277 27.3215 8.47454 27.4548 8.71178 27.6921C8.94902 27.9293 9.0823 28.2511 9.0823 28.5866C9.0823 28.9221 8.94902 29.2439 8.71178 29.4811C8.47454 29.7183 8.15277 29.8516 7.81726 29.8516H7.79653ZM3.24446 20.3534C2.91529 20.3507 2.60036 20.2188 2.3676 19.986C2.13483 19.7532 2.00286 19.4383 2.00016 19.1091V12.7839C2.00016 12.4539 2.13125 12.1374 2.3646 11.9041C2.59795 11.6707 2.91445 11.5396 3.24446 11.5396C3.57447 11.5396 3.89096 11.6707 4.12431 11.9041C4.35766 12.1374 4.48876 12.4539 4.48876 12.7839V19.1091C4.48876 19.4392 4.35766 19.7556 4.12431 19.989C3.89096 20.2224 3.57447 20.3534 3.24446 20.3534ZM28.1305 17.419C27.9657 17.4176 27.8028 17.3838 27.6511 17.3195C27.4994 17.2552 27.3619 17.1616 27.2463 17.0442C27.1308 16.9267 27.0395 16.7876 26.9777 16.6349C26.9159 16.4821 26.8848 16.3187 26.8862 16.1539V12.7632C26.8862 12.5998 26.9184 12.438 26.9809 12.287C27.0434 12.1361 27.1351 11.9989 27.2506 11.8834C27.3662 11.7678 27.5033 11.6762 27.6543 11.6136C27.8053 11.5511 27.9671 11.5189 28.1305 11.5189C28.2939 11.5189 28.4557 11.5511 28.6067 11.6136C28.7576 11.6762 28.8948 11.7678 29.0103 11.8834C29.1259 11.9989 29.2175 12.1361 29.2801 12.287C29.3426 12.438 29.3748 12.5998 29.3748 12.7632V16.1539C29.3777 16.4814 29.2524 16.797 29.0257 17.0334C28.799 17.2698 28.4889 17.4082 28.1616 17.419H28.1305ZM28.1305 8.22151C27.9657 8.22015 27.8028 8.18635 27.6511 8.12205C27.4994 8.05774 27.3619 7.96417 27.2463 7.8467C27.1308 7.72923 27.0395 7.59015 26.9777 7.43741C26.9159 7.28466 26.8848 7.12124 26.8862 6.95647V4.53008H23.5888C23.2533 4.53008 22.9315 4.3968 22.6943 4.15956C22.457 3.92232 22.3237 3.60055 22.3237 3.26504C22.3237 2.92953 22.457 2.60776 22.6943 2.37052C22.9315 2.13328 23.2533 2 23.5888 2H27.1247C27.427 2.00271 27.7258 2.06494 28.004 2.18314C28.2823 2.30133 28.5345 2.47318 28.7464 2.68886C28.9582 2.90455 29.1255 3.15985 29.2386 3.44018C29.3518 3.72052 29.4086 4.0204 29.4059 4.3227V6.95647C29.4073 7.12124 29.3762 7.28466 29.3144 7.43741C29.2526 7.59015 29.1613 7.72923 29.0458 7.8467C28.9302 7.96417 28.7927 8.05774 28.641 8.12205C28.4893 8.18635 28.3264 8.22015 28.1616 8.22151H28.1305ZM3.24446 8.22151C3.07969 8.22015 2.9168 8.18635 2.7651 8.12205C2.61339 8.05774 2.47584 7.96417 2.36029 7.8467C2.24475 7.72923 2.15347 7.59015 2.09168 7.43741C2.02989 7.28466 1.99879 7.12124 2.00016 6.95647V4.3227C1.99742 4.0204 2.05426 3.72052 2.16742 3.44018C2.28058 3.15985 2.44786 2.90455 2.65969 2.68886C2.87152 2.47318 3.12377 2.30133 3.40202 2.18314C3.68027 2.06494 3.97907 2.00271 4.28137 2H7.81726C8.15277 2 8.47454 2.13328 8.71178 2.37052C8.94902 2.60776 9.0823 2.92953 9.0823 3.26504C9.0823 3.60055 8.94902 3.92232 8.71178 4.15956C8.47454 4.3968 8.15277 4.53008 7.81726 4.53008H4.48876V6.95647C4.49151 7.12161 4.46136 7.28565 4.40006 7.43901C4.33876 7.59238 4.24754 7.73201 4.13173 7.84976C4.01591 7.96751 3.8778 8.06102 3.72547 8.12485C3.57314 8.18867 3.40962 8.22153 3.24446 8.22151ZM18.7982 4.53008H12.5767C12.2412 4.53008 11.9194 4.3968 11.6822 4.15956C11.445 3.92232 11.3117 3.60055 11.3117 3.26504C11.3117 2.92953 11.445 2.60776 11.6822 2.37052C11.9194 2.13328 12.2412 2 12.5767 2H18.7982C19.1337 2 19.4555 2.13328 19.6927 2.37052C19.93 2.60776 20.0633 2.92953 20.0633 3.26504C20.0633 3.60055 19.93 3.92232 19.6927 4.15956C19.4555 4.3968 19.1337 4.53008 18.7982 4.53008Z" fill="currentColor"/>
    <path d="M19 24C19 20.6863 21.6863 18 25 18C28.3137 18 31 20.6863 31 24C31 27.3137 28.3137 30 25 30H19.8C19.3582 30 19 29.6418 19 29.2V24Z" fill="currentColor"/>
</svg>
