<svg xmlns="http://www.w3.org/2000/svg" aria-hidden="true" viewBox="0 0 32 32">
    <title>
        Camera filled
    </title>
    <path fill="currentColor" d="M16.2 11.6c-2.7 0-4.9 2.2-4.9 4.9s2.2 4.9 4.9 4.9 4.9-2.2 4.9-4.9-2.2-4.9-4.9-4.9zM28.1 7h-4.7l-1.9-3.2c-.3-.5-.8-.8-1.4-.8h-7.9c-.5 0-1 .3-1.3.7L8.8 7H4.2C2.4 7 1 8.4 1 10.1v14.1c0 1.7 1.4 3.1 3.2 3.1h23.7c1.7 0 3.1-1.4 3.1-3.1V10c0-1.6-1.3-3-2.9-3zM16.2 23.4c-3.8 0-6.9-3.1-6.9-6.9s3.1-6.9 6.9-6.9c3.8 0 6.9 3.1 6.9 6.9s-3.1 6.9-6.9 6.9zm11.9-10.6H27c-.6 0-1-.4-1-1s.4-1 1-1h1.1c.6 0 1 .4 1 1s-.5 1-1 1z"/>
</svg>
