<svg xmlns="http://www.w3.org/2000/svg" aria-hidden="true" viewBox="0 0 32 32">
    <path fill="currentColor" d="M22.78 30.29a2.5 2.5 0 112.5-2.5 2.5 2.5 0 01-2.5 2.5zm0-2.95a.45.45 0 000 .9.45.45 0 100-.9zm-8.66 2.95a2.5 2.5 0 112.5-2.5 2.5 2.5 0 01-2.5 2.5zm0-2.95a.45.45 0 000 .9.45.45 0 100-.9zm12.33-2.16h-16a3.06 3.06 0 01-.92-6L5.34 5.29H2.58a1 1 0 010-2H6.1a1 1 0 011 .73l.9 3.1h20.2a1 1 0 01.81.39 1.07 1.07 0 01.19.88l-3 12a1 1 0 01-1 .77H10.44a1 1 0 100 2h16a1 1 0 110 2zm-14.83-6.11h12.82l2.48-9.9H8.64z"/>
</svg>
