<svg xmlns="http://www.w3.org/2000/svg" fill="currentColor" aria-hidden="true" viewBox="0 0 32 32">
    <path d="M16 4a12 12 0 1012 12A12 12 0 0016 4zm7.93 5.53a10.19 10.19 0 012.31 6.38 23.92 23.92 0 00-7.13-.33c-.08-.17-.14-.35-.22-.53-.21-.49-.44-1-.68-1.48a13.78 13.78 0 005.72-4.04zM16 5.77a10.23 10.23 0 016.79 2.58A11.56 11.56 0 0117.42 12a55.13 55.13 0 00-3.83-6A10.6 10.6 0 0116 5.77zm-4.36 1a65.8 65.8 0 013.8 5.93A38.49 38.49 0 016 13.9a10.31 10.31 0 015.64-7.17zM5.74 16v-.3a37.4 37.4 0 0010.53-1.46c.3.58.58 1.16.84 1.75l-.41.11a16.37 16.37 0 00-8.33 6.76A10.27 10.27 0 015.74 16zM16 26.26a10.21 10.21 0 01-6.29-2.16 14.13 14.13 0 018.05-6.41h.06A42.21 42.21 0 0120 25.44a10.16 10.16 0 01-4 .82zm5.71-1.76a43.42 43.42 0 00-2-7.3 14.89 14.89 0 016.38.44 10.14 10.14 0 01-4.38 6.86z"/>
</svg>
