<svg xmlns="http://www.w3.org/2000/svg" fill="currentColor" aria-hidden="true" viewBox="0 0 24 24">
    <path fill-rule="evenodd" d="M22.05 9.3c0 1.092-.866 1.95-1.955 1.95H3.755A1.937 1.937 0 011.8 9.3V4.95C1.8 3.858 2.666 3 3.755 3h16.34c1.09 0 1.955.858 1.955 1.95V9.3zm-1.955.45a.438.438 0 00.455-.45V4.95a.438.438 0 00-.455-.45H3.755a.438.438 0 00-.455.45V9.3c0 .258.188.45.455.45h16.34zM17.55 19.8c0 1.1-.88 1.95-1.97 1.95H3.77c-1.058 0-1.97-.819-1.97-1.875v-4.5c0-1.025.88-1.875 1.893-1.875H15.58c1.088 0 1.969.85 1.969 1.95v4.35zm-1.97.45c.284 0 .47-.2.47-.45v-4.35c0-.25-.187-.45-.47-.45H3.694c-.207 0-.393.2-.393.375v4.5c0 .144.154.375.47.375h11.81z" clip-rule="evenodd"/>
    <path fill-rule="evenodd" d="M19.575 7.125a.75.75 0 01-.75.75h-7.5a.75.75 0 010-1.5h7.5a.75.75 0 01.75.75zM9 7.125a.75.75 0 01-.75.75H6a.75.75 0 010-1.5h2.25a.75.75 0 01.75.75zm6 10.425a.75.75 0 01-.75.75H8.475a.75.75 0 010-1.5h5.775a.75.75 0 01.75.75z" clip-rule="evenodd"/>
    <path d="M5.925 16.875a.75.75 0 100 1.5.75.75 0 000-1.5z"/>
</svg>
