<svg role="img" xmlns="http://www.w3.org/2000/svg" aria-hidden="true" viewBox="0 0 32 32">
  <title>Gear</title>
  <path
    d="M26.63,18.54l2.95,1.7-3.11,5.39-2.92-1.69a11,11,0,0,1-4.44,2.58v3.36H12.89v-3l-.13-.41a10.4,10.4,0,0,1-4.31-2.54L5.53,25.63,2.42,20.24l3-1.7a11.29,11.29,0,0,1-.29-2.48,11.15,11.15,0,0,1,.32-2.6l-3-1.72L5.53,6.35l3,1.75a10.9,10.9,0,0,1,4.35-2.51V2.1h6.22V5.59A10.9,10.9,0,0,1,23.46,8.1l3-1.75,3.11,5.39-3,1.72a11.15,11.15,0,0,1,.32,2.6A11.29,11.29,0,0,1,26.63,18.54ZM16,11.65A4.34,4.34,0,1,0,20.34,16,4.34,4.34,0,0,0,16,11.65Z"
    fill="none"
    stroke="currentColor"
    stroke-width="2"
    stroke-linecap="round"
    stroke-linejoin="round"
  ></path>
</svg>
