<svg xmlns="http://www.w3.org/2000/svg" aria-hidden="true" viewBox="0 0 32 32">
    <path fill="none" stroke="currentColor" stroke-linecap="round" stroke-linejoin="round" stroke-width="2" d="M26.63 18.54l2.95 1.7-3.11 5.39-2.92-1.69a11 11 0 01-4.44 2.58v3.36h-6.22v-3l-.13-.41a10.4 10.4 0 01-4.31-2.54l-2.92 1.7-3.11-5.39 3-1.7a11.29 11.29 0 01-.29-2.48 11.15 11.15 0 01.32-2.6l-3-1.72 3.08-5.39 3 1.75a10.9 10.9 0 014.35-2.51V2.1h6.22v3.49a10.9 10.9 0 014.36 2.51l3-1.75 3.11 5.39-3 1.72a11.15 11.15 0 01.32 2.6 11.29 11.29 0 01-.26 2.48zM16 11.65A4.34 4.34 0 1020.34 16 4.34 4.34 0 0016 11.65z"/>
</svg>
