<svg xmlns="http://www.w3.org/2000/svg" fill="currentColor" aria-hidden="true" viewBox="0 0 32 32">
    <path d="M26.1 26.63h-5.9a.58.58 0 01-.57-.58V5.89a.58.58 0 01.57-.58h5.9a.57.57 0 01.57.59v20.15a.57.57 0 01-.57.58zM19.65 3a2.48 2.48 0 00-2.45 2.49v21A2.48 2.48 0 0019.64 29h6.9A2.47 2.47 0 0029 26.51V5.5A2.47 2.47 0 0026.56 3zm-7.74 23.63H6a.57.57 0 01-.57-.58V15.93a.57.57 0 01.57-.58h5.9a.57.57 0 01.57.58v10.12a.58.58 0 01-.56.58zM5.45 13A2.47 2.47 0 003 15.53v11A2.47 2.47 0 005.44 29h6.91a2.48 2.48 0 002.45-2.49v-11A2.48 2.48 0 0012.36 13H5.45z"/>
</svg>
