<svg xmlns="http://www.w3.org/2000/svg" aria-hidden="true" viewBox="0 0 32 32">
    <path fill="currentColor" d="M26.16 29H19a1 1 0 01-1-1l-.07-4.73a1.93 1.93 0 00-3.84 0V28a1 1 0 01-1 1H5.84a2.19 2.19 0 01-2.16-2.21v-8.1a.93.93 0 01-.72.2.92.92 0 01-.65-.37L.44 16.05a1 1 0 01.16-1.33L14.87 3.25a1 1 0 011.17 0L31.37 14.7a1 1 0 01.38.63 1 1 0 01-.19.72l-1.86 2.48a1 1 0 01-1.34.19v8.06a2.18 2.18 0 01-2.2 2.22zm-6.25-2h6.25a.27.27 0 00.24-.29v-9.45L15.49 9.1l-9.89 8v9.62a.27.27 0 00.24.29h6.34V23.3a3.84 3.84 0 017.68-.05zm8.26-10.86l.57.43.71-.95-14-10.45-13 10.43.7.94 11.71-9.41a1 1 0 011.18 0l11.59 8.67a.92.92 0 01.54.38z"/>
</svg>
