<svg xmlns="http://www.w3.org/2000/svg" aria-hidden="true" viewBox="0 0 32 32">
    <path fill="currentColor" d="M27.51 11.17a5 5 0 00-6.28-4.77A4.95 4.95 0 0013.61 4a4.73 4.73 0 00-1.88-.39A5 5 0 007.1 6.8a4.94 4.94 0 00-2.61 4.37v1.44a.22.22 0 000 .08l2.6 16.49a1 1 0 001 .85h15.83a1 1 0 001-.85l2.58-16.49a.22.22 0 000-.08v-.08zM8.3 8.44a1 1 0 00.58-.65 3 3 0 012.85-2.19 2.9 2.9 0 011.51.4 1 1 0 001.22-.15 2.93 2.93 0 014.32.19 4.16 4.16 0 00-1.27 0 4.88 4.88 0 00-3 2 1 1 0 00.27 1.38 1 1 0 00.56.17 1 1 0 00.83-.44 2.94 2.94 0 011.68-1.14 2.64 2.64 0 012 .58.18.18 0 01.07.05 1.25 1.25 0 00.25.09 1.13 1.13 0 00.32 0h.08a1 1 0 00.43-.06 2.91 2.91 0 011.55-.45 3 3 0 013 2.95v.36h-19v-.36A3 3 0 018.3 8.44zm11.75 5.09L18.66 28h-4.78l-1.39-14.5zm-13.39 0h3.82L11.87 28H8.94zM23.06 28h-2.39l1.39-14.5h3.28z"/>
    <path fill="currentColor" d="M23.05 5.08A1.06 1.06 0 1022 4a1 1 0 001.05 1.08z"/>
</svg>
