<svg width="32" height="32" viewBox="0 0 32 32" fill="none" xmlns="http://www.w3.org/2000/svg">
    <path d="M21.3121 5.98487C20.7515 5.53636 19.9334 5.62725 19.4849 6.1879C19.0364 6.74854 19.1273 7.56662 19.6879 8.01513L21.649 9.58403C17.0887 9.56263 13.4118 10.7435 10.8141 13.0996C7.74946 15.8792 6.43843 20.0644 6.70179 25.0683C6.73953 25.7853 7.35134 26.3359 8.06832 26.2982C8.7853 26.2605 9.33593 25.6487 9.2982 24.9317C9.06157 20.4356 10.2505 17.1208 12.5609 15.0254C14.63 13.1488 17.7983 12.0678 22.2011 12.193L20.1363 14.0284C19.5997 14.5054 19.5514 15.3271 20.0284 15.8637C20.5054 16.4003 21.3271 16.4486 21.8637 15.9716L26.3637 11.9716C26.65 11.7171 26.8095 11.3492 26.7996 10.9663C26.7896 10.5833 26.6113 10.2242 26.3121 9.98487L21.3121 5.98487Z" fill="currentColor"/>
</svg>
