<svg xmlns="http://www.w3.org/2000/svg" viewBox="0 0 32 32">
    <path fill="currentColor" d="M4,16.69h6.54a2,2,0,0,0,2-2V8.36a2,2,0,0,0-2-2H4a2,2,0,0,0-2,2v6.33A2,2,0,0,0,4,16.69Zm.55-7.78H10v5.24H4.55Z"/>
    <path fill="currentColor" d="M28,6.36H17a2,2,0,0,0-2,2v6.33a2,2,0,0,0,2,2H28a2,2,0,0,0,2-2V8.36A2,2,0,0,0,28,6.36Zm-.55,7.79H17.5V8.91h10Z"/>
    <path fill="currentColor" d="M19.62,18.25H4a2,2,0,0,0-2,2V28a2,2,0,0,0,2,2H19.62a2,2,0,0,0,2-2V20.25A2,2,0,0,0,19.62,18.25Zm-.54,9.2H4.55V20.8H19.08Z"/>
    <path fill="currentColor" d="M28,17.9H24.89a2,2,0,0,0-2,2V28a2,2,0,0,0,2,2H28a2,2,0,0,0,2-2V19.9A2,2,0,0,0,28,17.9Zm-.55,9.55h-2v-7h2Z"/>
    <path fill="currentColor" d="M3.94,4.55H28.73a1.28,1.28,0,0,0,0-2.55H3.94a1.28,1.28,0,0,0,0,2.55Z"/>
</svg>
