<svg xmlns="http://www.w3.org/2000/svg" aria-hidden="true" viewBox="0 0 32 32">
    <path fill="currentColor" d="M16 29a1.68 1.68 0 01-.78-.2L3.84 22.69a1.58 1.58 0 010-2.79l2.56-1.37-2.54-1.35a1.59 1.59 0 010-2.8L6 13.22l-2.15-1.15a1.57 1.57 0 010-2.79l11.37-6.09a1.7 1.7 0 011.55 0l11.37 6.09a1.58 1.58 0 010 2.79L26 13.22l2.18 1.16a1.59 1.59 0 010 2.8l-2.58 1.37 2.55 1.38a1.58 1.58 0 010 2.79l-11.41 6.09A1.62 1.62 0 0116 29zM5.47 21.3L16 27l10.5-5.68-2.5-1.38a1.5 1.5 0 01-.4-.3l-6.77 3.62a1.62 1.62 0 01-1.54 0l-6.77-3.59zm10.53.1l10.52-5.62s-2.46-1.35-2.52-1.47l-7.18 3.84a1.64 1.64 0 01-1.55 0l-7.12-3.81-2.66 1.44zm.16-5zm-.16-.1l10.51-5.63L16 5.05 5.48 10.67zm-11.19-.16z"/>
</svg>
