<svg xmlns="http://www.w3.org/2000/svg" aria-hidden="true" viewBox="0 0 32 32">
    <path d="M27.5 11.77l-6.36-.66a1.41 1.41 0 01-1.06-.75l-2.55-5.85a1.66 1.66 0 00-3.06 0l-2.53 5.81a1.4 1.4 0 01-1 .78l-6.4.67a1.69 1.69 0 00-.92 3l4.77 4.14a1.44 1.44 0 01.43 1.23l-1.45 6.31a1.68 1.68 0 002.5 1.81l5.46-3.33a1.4 1.4 0 011.29 0l5.51 3.36a1.69 1.69 0 002.51-1.81l-1.41-6.31a1.42 1.42 0 01.38-1.24l4.81-4.18a1.68 1.68 0 00.5-1.78 1.64 1.64 0 00-1.42-1.2zm-5.2 5.7a3.44 3.44 0 00-1 3L22.55 26a.15.15 0 01-.22.16l-4.76-2.89a3.3 3.3 0 00-1.57-.44 3.59 3.59 0 00-1.64.41l-4.69 2.87a.15.15 0 01-.22-.11l1.22-5.48a3.46 3.46 0 00-1-3l-4.13-3.66a.15.15 0 01.08-.26l5.52-.6a3.39 3.39 0 002.55-1.89l2.17-5a.15.15 0 01.28 0l2.19 5.05A3.41 3.41 0 0020.9 13l5.48.57a.15.15 0 01.08.26z"/>
</svg>
