<svg xmlns="http://www.w3.org/2000/svg" fill="none" aria-hidden="true" viewBox="0 0 32 32">
    <path fill="currentColor" fill-rule="evenodd" d="M21.85 2.705a1.068 1.068 0 10-2.009.727l.614 1.697a12.314 12.314 0 00-4.402-.815c-6.748 0-12.252 5.402-12.252 12.006 0 1.863.472 3.594 1.166 5.08a1.068 1.068 0 101.936-.905c-.584-1.25-.965-2.673-.965-4.175 0-5.385 4.508-9.87 10.115-9.87 1.214 0 2.396.22 3.492.62l-1.82.427a1.068 1.068 0 10.49 2.08l4.473-1.051a1.069 1.069 0 00.823-1.091 1.072 1.072 0 00-.19-.665l-1.47-4.065zm-11.7 27.241a1.069 1.069 0 01-1.348-.681l-1.466-4.463a1.069 1.069 0 01.802-1.38l4.503-.918a1.068 1.068 0 11.427 2.093l-1.91.39c1.497.817 3.17 1.307 4.895 1.307 5.594 0 10.009-4.47 10.009-9.869 0-1.313-.285-2.54-.768-3.686a1.068 1.068 0 111.968-.83c.582 1.377.937 2.885.937 4.516 0 6.59-5.384 12.006-12.146 12.006-2.067 0-4.033-.569-5.763-1.484l.542 1.65a1.069 1.069 0 01-.682 1.35z" clip-rule="evenodd"/>
</svg>
