<svg xmlns="http://www.w3.org/2000/svg" aria-hidden="true" viewBox="0 0 32 32">
    <path fill="currentColor" fill-rule="evenodd" d="M7 28.72a1.07 1.07 0 001.16 1 1.1 1.1 0 001-1.26l-.26-1.78a12.83 12.83 0 0019.92-10.37 15.69 15.69 0 00-.19-2.49 1.1 1.1 0 00-1.26-.88 1.15 1.15 0 00-.87 1.36 10 10 0 01.15 2A10.65 10.65 0 0110 24.81h2.24a1.11 1.11 0 001.16-1.16 1.16 1.16 0 00-1.06-1.16H7.62a1.55 1.55 0 00-1.06.51 1.59 1.59 0 00-.29 1zM25.05 3.28a1.07 1.07 0 00-1.16-1 1.1 1.1 0 00-1 1.26l.17 1.75a12.83 12.83 0 00-19.88 10.4 15.69 15.69 0 00.19 2.49 1.1 1.1 0 001.26.88 1.15 1.15 0 00.87-1.36 10 10 0 01-.15-2A10.65 10.65 0 0122 7.19h-2.24a1.11 1.11 0 00-1.16 1.16 1.16 1.16 0 001.06 1.16h4.75A1.55 1.55 0 0025.44 9a1.59 1.59 0 00.29-1z"/>
</svg>
