<svg xmlns="http://www.w3.org/2000/svg" fill="currentColor" aria-hidden="true" viewBox="0 0 32 32">
    <path d="M20.08 6.76h-6.26v19.61a1.71 1.71 0 01-.39 1.13 1.44 1.44 0 01-1.16.48 1.41 1.41 0 01-1.16-.48 1.71 1.71 0 01-.39-1.13V6.76H4.36A1.37 1.37 0 013 5.39 1.38 1.38 0 014.4 4h15.65a1.41 1.41 0 011 .41 1.34 1.34 0 01.41 1 1.3 1.3 0 01-.4 1 1.36 1.36 0 01-.98.35zM28.68 25a1.07 1.07 0 00-.81-.34 2.62 2.62 0 00-1 .31 3.18 3.18 0 01-1.36.28 2.58 2.58 0 01-.92-.14 1.16 1.16 0 01-.6-.47 10.2 10.2 0 01-.39-.66 2.34 2.34 0 01-.18-.88c0-.42-.06-.74-.07-1s0-.59 0-1.09v-6h3.55a1.28 1.28 0 00.93-.4 1.28 1.28 0 000-1.84 1.24 1.24 0 00-.93-.4h-3.53V9.94a1.33 1.33 0 00-.32-.94 1.2 1.2 0 00-.91-.35c-.6 0-1.05.38-1.34 1.14a13.48 13.48 0 00-.39 2.59H19a1.36 1.36 0 00-.94.38 1.28 1.28 0 000 1.88 1.36 1.36 0 00.94.38h1.38v6.5C20.37 25.83 22 28 25.3 28a4.56 4.56 0 003.27-1 1.56 1.56 0 00.43-1.15 1.24 1.24 0 00-.32-.85z"/>
</svg>
