<svg width="32" height="32" viewBox="0 0 32 32" fill="currentColor" xmlns="http://www.w3.org/2000/svg">
    <path d="M12.1567 5.98487C12.7174 5.53636 13.5355 5.62725 13.984 6.1879C14.4325 6.74854 14.3416 7.56662 13.7809 8.01513L11.8198 9.58403C16.3802 9.56263 20.057 10.7435 22.6547 13.0996C25.7194 15.8792 27.0304 20.0644 26.7671 25.0683C26.7293 25.7853 26.1175 26.3359 25.4005 26.2982C24.6835 26.2605 24.1329 25.6487 24.1706 24.9317C24.4073 20.4356 23.2183 17.1208 20.908 15.0254C18.8388 13.1488 15.6706 12.0678 11.2677 12.193L13.3325 14.0284C13.8691 14.5054 13.9175 15.3271 13.4405 15.8637C12.9635 16.4003 12.1418 16.4486 11.6052 15.9716L7.10517 11.9716C6.81883 11.7171 6.65934 11.3492 6.66928 10.9663C6.67922 10.5833 6.85758 10.2242 7.15674 9.98487L12.1567 5.98487Z"/>
</svg>
