<svg xmlns="http://www.w3.org/2000/svg" aria-hidden="true" viewBox="0 0 32 32">
    <path d="M16 29a1 1 0 01-1-1V15.2l-2.17 2.19A1 1 0 1111.4 16l3.81-3.83a1 1 0 01.78-.38 1 1 0 01.71.3L20.6 16a1 1 0 11-1.42 1.41L17 15.19V28a1 1 0 01-1 1zm9.22 0h-4a1 1 0 010-2h4a.78.78 0 00.78-.77V5.77a.79.79 0 00-.78-.77H6.77a.77.77 0 00-.77.81v20.42a.78.78 0 00.78.77h4.52a1 1 0 010 2H6.78A2.78 2.78 0 014 26.23V5.81A2.77 2.77 0 016.77 3h18.45A2.77 2.77 0 0128 5.77v20.46A2.78 2.78 0 0125.22 29z" data-name="Layer 75"/>
</svg>
