<svg xmlns="http://www.w3.org/2000/svg" aria-hidden="true" viewBox="0 0 32 32">
    <path d="M26.22 28h-3.56a1 1 0 110-2h3.56a.78.78 0 00.78-.78V10.06a.78.78 0 00-.78-.78H16a1 1 0 01-.77-.36L12.79 6H5v19.22a.78.78 0 00.78.78h5.52a4.38 4.38 0 003.11-1.31 4.81 4.81 0 001.4-3.44V17l-2.17 2.2a1 1 0 01-1.42 0 1 1 0 010-1.41L16 13.92a1 1 0 01.79-.38 1.05 1.05 0 01.71.29l3.89 3.93A1 1 0 0120 19.17L17.8 17v4.29a6.81 6.81 0 01-2 4.85A6.34 6.34 0 0111.3 28H5.78A2.79 2.79 0 013 25.22V5a1 1 0 011-1h9.26a1 1 0 01.76.36l2.45 2.92h9.75A2.79 2.79 0 0129 10.06v15.16A2.79 2.79 0 0126.22 28z" data-name="Layer 75"/>
</svg>
