<svg role="img" xmlns="http://www.w3.org/2000/svg" aria-hidden="true" viewBox="0 0 32 32">
  <title>Instagram</title>
  <path
    d="M16,5.75c3.34,0,3.73,0,5.05.08a6.55,6.55,0,0,1,2.32.43,3.73,3.73,0,0,1,1.44.93,3.73,3.73,0,0,1,.93,1.44A6.55,6.55,0,0,1,26.17,11c.07,1.32.08,1.71.08,5.05s0,3.73-.08,5.05a6.55,6.55,0,0,1-.43,2.32,4.07,4.07,0,0,1-2.37,2.37,6.55,6.55,0,0,1-2.32.43c-1.32.07-1.71.08-5.05.08s-3.73,0-5.05-.08a6.55,6.55,0,0,1-2.32-.43,3.73,3.73,0,0,1-1.44-.93,3.73,3.73,0,0,1-.93-1.44,6.55,6.55,0,0,1-.43-2.32c-.07-1.32-.08-1.71-.08-5.05s0-3.73.08-5.05a6.55,6.55,0,0,1,.43-2.32,3.73,3.73,0,0,1,.93-1.44,3.73,3.73,0,0,1,1.44-.93A6.55,6.55,0,0,1,11,5.83c1.32-.07,1.71-.08,5.05-.08M16,3.5c-3.39,0-3.82,0-5.15.08a9.2,9.2,0,0,0-3,.58A6,6,0,0,0,5.6,5.6,6,6,0,0,0,4.16,7.81a9.2,9.2,0,0,0-.58,3C3.51,12.18,3.5,12.61,3.5,16s0,3.82.08,5.15a9.2,9.2,0,0,0,.58,3A6,6,0,0,0,5.6,26.4a6,6,0,0,0,2.21,1.44,9.2,9.2,0,0,0,3,.58c1.33.07,1.76.08,5.15.08s3.82,0,5.15-.08a9.2,9.2,0,0,0,3-.58,6.39,6.39,0,0,0,3.65-3.65,9.2,9.2,0,0,0,.58-3c.07-1.33.08-1.76.08-5.15s0-3.82-.08-5.15a9.2,9.2,0,0,0-.58-3A6,6,0,0,0,26.4,5.6a6,6,0,0,0-2.21-1.44,9.2,9.2,0,0,0-3-.58C19.82,3.51,19.39,3.5,16,3.5Zm0,6.08A6.42,6.42,0,1,0,22.42,16,6.41,6.41,0,0,0,16,9.58Zm0,10.59A4.17,4.17,0,1,1,20.17,16,4.17,4.17,0,0,1,16,20.17ZM22.67,7.83a1.5,1.5,0,1,0,1.5,1.5A1.5,1.5,0,0,0,22.67,7.83Z"
    fill="currentColor"
  ></path>
</svg>
