<svg role="img" xmlns="http://www.w3.org/2000/svg" aria-hidden="true" viewBox="0 0 32 32">
  <title>Twitter</title>
  <path
    d="M11.18,26.56A15.07,15.07,0,0,0,26.35,11.39c0-.24,0-.47,0-.69A11,11,0,0,0,29,7.93a10.24,10.24,0,0,1-3.06.84,5.33,5.33,0,0,0,2.34-2.95,10.83,10.83,0,0,1-3.39,1.3A5.34,5.34,0,0,0,15.8,12a15.12,15.12,0,0,1-11-5.57,5.33,5.33,0,0,0,1.65,7.12A5.14,5.14,0,0,1,4,12.86v.07a5.33,5.33,0,0,0,4.28,5.23,5.31,5.31,0,0,1-2.41.09,5.36,5.36,0,0,0,5,3.71,10.65,10.65,0,0,1-6.62,2.28A10.81,10.81,0,0,1,3,24.17a15.19,15.19,0,0,0,8.18,2.39"
    fill="currentColor"
  ></path>
</svg>
