<svg xmlns="http://www.w3.org/2000/svg" aria-hidden="true" role="img" viewBox="0 0 32 32">
    <title>3D</title>
    <path d="M8.91 8.15l6-3.42a2.07 2.07 0 012.07 0l6 3.45A2.11 2.11 0 0124.09 10v6.83A2.09 2.09 0 0123 18.65l-6 3.43a2.11 2.11 0 01-2.08 0l-6-3.45a2.1 2.1 0 01-1.08-1.83V10a2.12 2.12 0 011.07-1.85zM16 13.4L4.27 6.7m23.46 0L16 13.4m0 0v13.41M4.27 6a.76.76 0 10.73.72.76.76 0 00-.73-.72zm23.46 0a.76.76 0 10.77.76.76.76 0 00-.77-.76zM16 26.06a.75.75 0 00-.77.75.77.77 0 001.53 0 .75.75 0 00-.76-.75z" fill="none" stroke="currentColor" stroke-width="2" stroke-linecap="round" stroke-linejoin="round"></path>
</svg>