<svg xmlns="http://www.w3.org/2000/svg" role="img" viewBox="0 0 32 32" aria-hidden="true">
    <title>Air</title>
    <path d="M2.93,20.48a.51.51,0,0,1-.85-.55s1.73-2.67,3.82-5.28C8.82,11,11,9.24,12.52,9.24c.72,0,1.58.39,1.58,2.28a14.64,14.64,0,0,1-.28,2.4c-.44,0-1,0-1,0a13.1,13.1,0,0,0,.3-2.4c0-1.27-.4-1.27-.57-1.27C10.35,10.25,5.48,16.52,2.93,20.48ZM19,13.75a.79.79,0,0,0,.8-.79.8.8,0,0,0-.8-.8.79.79,0,0,0-.79.8A.79.79,0,0,0,19,13.75Zm2.21,4a5.9,5.9,0,0,1-3.82,2c-.59,0-.89-.25-.89-.75s.29-1.55,1.68-3.35a.53.53,0,0,0,.07-.5.54.54,0,0,0-.39-.31c-3.42-.57-8-.84-10.34,1.15a3.24,3.24,0,0,0-1.26,2.42,2.31,2.31,0,0,0,2.38,2.35c1.84,0,3.35-1.39,4.37-4,.11-.27.2-.54.29-.82l-1.08,0c-.68,2-1.82,3.78-3.58,3.78a1.31,1.31,0,0,1-1.37-1.34,2.33,2.33,0,0,1,.9-1.65c1.08-.91,3.47-1.81,8.71-1.05A6.16,6.16,0,0,0,15.49,19a1.74,1.74,0,0,0,1.91,1.76,6.77,6.77,0,0,0,4.54-2.31A9.71,9.71,0,0,0,23.15,17a2.13,2.13,0,0,1-1-.29A10.11,10.11,0,0,1,21.22,17.75Zm8.65.51a.5.5,0,0,0-.71,0A5.3,5.3,0,0,1,26,19.75a.71.71,0,0,1-.79-.81c0-.59.31-1.69,1.8-3.63a.49.49,0,0,0,0-.65.5.5,0,0,0-.66-.07,5.22,5.22,0,0,1-2.74.87c-1.12,0-1.63-.68-1.63-1.31,0-.78.4-1,.61-1,.54,0,.6.6.6.79a2.85,2.85,0,0,1-.14.91,2.1,2.1,0,0,0,1,.05,3.48,3.48,0,0,0,.12-1,1.65,1.65,0,0,0-1.61-1.77,1.76,1.76,0,0,0-1.62,2,2.15,2.15,0,0,0,.87,1.75,2.88,2.88,0,0,0,1.77.57,5.5,5.5,0,0,0,1.57-.24,5.62,5.62,0,0,0-.95,2.71A1.71,1.71,0,0,0,26,20.76,6.46,6.46,0,0,0,29.83,19,.51.51,0,0,0,29.87,18.26Z" fill="currentColor" stroke="none"></path>
</svg>