<svg xmlns="http://www.w3.org/2000/svg" aria-hidden="true" role="img" viewBox="0 0 32 32">
  <title>Bell</title>
  <path
    d="M21.43,20.07l.89.89a2.5,2.5,0,0,1,0,3.53h0a2.49,2.49,0,0,1-3.53,0l-.89-.89ZM7.42,5.42l-.36-.36a1.42,1.42,0,0,0-2,0h0a1.42,1.42,0,0,0,0,2l.36.36m0,0C3,10.81,3.83,14.92,6.66,18.52q.16.21.33.45A13.75,13.75,0,0,1,9,23.3a9.84,9.84,0,0,0,2.09,4.14,1.81,1.81,0,0,0,2.58,0l7-6.88,6.86-7a1.81,1.81,0,0,0,0-2.58A9.84,9.84,0,0,0,23.3,9,13.75,13.75,0,0,1,19,7l-.45-.33C14.92,3.83,10.81,3,7.42,5.42l-.57.46a6.16,6.16,0,0,0-1,.94C5.65,7.11,5.41,7.41,5.42,7.42Z"
    fill="none"
    stroke="currentColor"
    stroke-width="2"
    stroke-linecap="round"
    stroke-linejoin="round"
  ></path>
</svg>
