<svg role="img" xmlns="http://www.w3.org/2000/svg" aria-hidden="true" viewBox="0 0 32 32">
    <title>Camera</title>
    <path d="M27.82,27.05H4.09A2.14,2.14,0,0,1,2,24.91V10.82A2.14,2.14,0,0,1,4.09,8.68H9a.6.6,0,0,0,.5-.27L11.64,5a.6.6,0,0,1,.5-.27H20a.6.6,0,0,1,.51.29l2,3.35a.61.61,0,0,0,.51.28H28a2,2,0,0,1,2,2V24.91A2.13,2.13,0,0,1,27.82,27.05ZM16.13,11.28A5.86,5.86,0,1,0,22,17.14,5.86,5.86,0,0,0,16.13,11.28Zm9.45,1.18h.78m-.78,0h.78Z" fill="none" stroke="currentColor" stroke-width="2" stroke-linecap="round" stroke-linejoin="round"></path>
</svg>