<svg role="img" xmlns="http://www.w3.org/2000/svg" aria-hidden="true" viewBox="0 0 32 32">
    <title>Camera filled</title>
    <path d="M16.2,11.6c-2.7,0-4.9,2.2-4.9,4.9c0,2.7,2.2,4.9,4.9,4.9c2.7,0,4.9-2.2,4.9-4.9C21.1,13.8,18.9,11.6,16.2,11.6z M28.1,7h-4.7l-1.9-3.2c-0.3-0.5-0.8-0.8-1.4-0.8h-7.9c-0.5,0-1,0.3-1.3,0.7L8.8,7H4.2c0,0,0,0,0,0C2.4,7,1,8.4,1,10.1v14.1 c0,0,0,0,0,0c0,1.7,1.4,3.1,3.2,3.1h23.7c1.7,0,3.1-1.4,3.1-3.1V10C31,8.4,29.7,7,28.1,7z M16.2,23.4c-3.8,0-6.9-3.1-6.9-6.9 s3.1-6.9,6.9-6.9c3.8,0,6.9,3.1,6.9,6.9S20,23.4,16.2,23.4z M28.1,12.8H27c-0.6,0-1-0.4-1-1c0-0.6,0.4-1,1-1h1.1c0.6,0,1,0.4,1,1 C29.1,12.4,28.6,12.8,28.1,12.8z" fill="currentColor" stroke="none"></path>
</svg>