<svg role="img" xmlns="http://www.w3.org/2000/svg" aria-hidden="true" viewBox="0 0 32 32">
    <title>Eye closed</title>
    <path d="M20.5,11.8A10.4,10.4,0,0,0,16,10.7c-6.6,0-12,7.6-12,7.6a24.4,24.4,0,0,0,4,4.14m3.3,2.22A10.6,10.6,0,0,0,16,26c6.6,0,12-7.6,12-7.6a24.5,24.5,0,0,0-3.7-4M16,6V7.4M7.4,9.6l.56.59m4.28,8.7a4,4,0,0,1,3.9-4.8m1,4h3a4,4,0,0,1-4,4,4,4,0,0,1-2.2-.7M27.53,6.4,8.3,22.4,4.5,26" fill="none" stroke="currentColor" stroke-width="2" stroke-linecap="round" stroke-linejoin="round"></path>
</svg>