<svg role="img" xmlns="http://www.w3.org/2000/svg" aria-hidden="true" viewBox="0 0 32 32">
  <title>GitHub</title>
  <path
    d="M16,3.59a12.66,12.66,0,0,0-4,24.67c.63.12.86-.27.86-.61s0-1.09,0-2.15c-3.53.77-4.27-1.7-4.27-1.7A3.33,3.33,0,0,0,7.18,22c-1.15-.78.08-.77.08-.77A2.66,2.66,0,0,1,9.2,22.49a2.71,2.71,0,0,0,3.69,1.05,2.66,2.66,0,0,1,.8-1.69c-2.81-.32-5.77-1.41-5.77-6.26a4.92,4.92,0,0,1,1.31-3.4,4.53,4.53,0,0,1,.12-3.35s1.06-.34,3.48,1.3a12.17,12.17,0,0,1,6.34,0c2.42-1.64,3.48-1.3,3.48-1.3a4.53,4.53,0,0,1,.12,3.35,4.91,4.91,0,0,1,1.3,3.4c0,4.86-3,5.93-5.78,6.25a3,3,0,0,1,.86,2.34c0,1.69,0,3.06,0,3.47s.23.74.87.61A12.66,12.66,0,0,0,16,3.59Z"
    fill="currentColor"
    stroke="none"
  ></path>
</svg>
