<svg role="img" xmlns="http://www.w3.org/2000/svg" aria-hidden="true" viewBox="0 0 32 32">
    <title>Help</title>
    <path d="M17.6,25.8a2.2,2.2,0,1,1-4.4,0,2.2,2.2,0,1,1,4.4,0ZM16,4C12.51,4,10,5.61,9.1,8.43a1.7,1.7,0,0,0,.24,1.51,1.7,1.7,0,0,0,1.4.7h.11a1.8,1.8,0,0,0,1.6-1.3,3.3,3.3,0,0,1,3.31-2.17c2,0,3.4,1.2,3.4,3,0,1.6-.6,2.4-2.5,3.6-2.2,1.4-3.2,2.91-3.1,5.13v.5a1.9,1.9,0,0,0,.6,1.4,1.6,1.6,0,0,0,1.14.5h.08a1.8,1.8,0,0,0,1.7-2c0-1.6.6-2.4,2.5-3.6A6.2,6.2,0,0,0,23,10.1C23,6.5,20.1,4,16,4Z" fill="none" stroke="currentColor" stroke-width="2" stroke-linecap="round" stroke-linejoin="round"></path>
</svg>