<svg role="img" xmlns="http://www.w3.org/2000/svg" aria-hidden="true" viewBox="0 0 32 32">
    <title>LinkedIn</title>
    <path d="M24.6,28H7.4A3.4,3.4,0,0,1,4,24.6V7.4A3.4,3.4,0,0,1,7.4,4H24.6A3.4,3.4,0,0,1,28,7.4V24.6A3.4,3.4,0,0,1,24.6,28ZM11.93,24.09V13.25H8.33V24.09Zm2,0h3.6V18a2.6,2.6,0,0,1,.12-.88,2,2,0,0,1,1.85-1.32c1.3,0,1.83,1,1.83,2.45v5.8h3.6V17.88c0-3.33-1.78-4.88-4.15-4.88a3.6,3.6,0,0,0-3.27,1.82h0V13.25H13.92c.05,1,0,10.84,0,10.84ZM12.17,9.9h0A1.88,1.88,0,0,0,10.29,8H10A1.88,1.88,0,0,0,8.11,9.9h0A1.87,1.87,0,0,0,10,11.77h.3A1.87,1.87,0,0,0,12.17,9.9Z" fill="currentColor"></path>
</svg>