<svg role="img" xmlns="http://www.w3.org/2000/svg" aria-hidden="true" viewBox="0 0 32 32">
    <title>Medium</title>
    <path d="M16,3.35A12.65,12.65,0,0,0,3.35,16h0a12.65,12.65,0,0,0,25.3,0h0A12.65,12.65,0,0,0,16,3.35Zm7.47,6.87-1.21,1.16a.35.35,0,0,0-.14.34v8.51a.35.35,0,0,0,.14.34l1.18,1.16V22H17.5v-.26l1.22-1.19c.12-.12.12-.15.12-.33V13.32L15.44,22H15l-4-8.64v5.79a.8.8,0,0,0,.22.66l1.59,1.93V22H8.32V21.7l1.59-1.93a.76.76,0,0,0,.21-.66v-6.7a.61.61,0,0,0-.19-.49l-1.42-1.7V10H12.9l3.4,7.45,3-7.45h4.19Z" fill="currentColor"></path>
</svg>