<svg role="img" xmlns="http://www.w3.org/2000/svg" aria-hidden="true" viewBox="0 0 32 32">
    <title>PDF</title>
    <path d="M27 13C27 12.9 27 12.9 27 13C27 12.8 27 12.7 26.9 12.6C26.8 12.5 26.8 12.4 26.7 12.3L17.8 3.4C17.6 3.1 17.4 3 17.1 3H6C5.4 3 5 3.5 5 4V28C5 28.6 5.4 29 6 29H26C26.6 29 27 28.6 27 28V13ZM18.1 6.4L23.6 12H18.1V6.4ZM16.1 5V13C16.1 13.6 16.5 14 17.1 14H25V16.4H7V5H16.1ZM8.4 25.2V19.1H10.7C12.1 19.1 12.9 20 12.9 21.1C12.9 22.3 12.1 23.1 10.7 23.1H9.5V25.2H8.4ZM14 25.2V19.1H16.1C17.9 19.1 19 20.2 19 22.1C19 24 17.9 25.2 16 25.2H14ZM24 21.7V22.6H21.5V25.2H20.4V19.1H24.3V20H21.5V21.7H24ZM17.9 22.1C17.9 23.5 17.3 24.2 16 24.2H15.1V20H16C17.3 20 17.9 20.7 17.9 22.1ZM10.5 22.2H9.5V20H10.5C11.3 20 11.7 20.4 11.7 21.1C11.7 21.7 11.4 22.2 10.5 22.2Z" fill="currentColor"></path>
</svg>