<svg role="img" xmlns="http://www.w3.org/2000/svg" aria-hidden="true" viewBox="0 0 32 32">
  <title>Team</title>
  <path
    d="M15,10.4c0,2.8-1.9,5.1-4.3,5.1s-4.2-2.2-4.2-5.1A4.3,4.3,0,0,1,10.7,6,4.3,4.3,0,0,1,15,10.4ZM19.8,26a8.37,8.37,0,0,0-8-5.81A8.4,8.4,0,0,0,4,26h7.9M21.7,6.2a3.43,3.43,0,0,1,3.4,3.48c0,2.35-1.5,4.1-3.4,4.1s-3.4-1.9-3.4-4.1A3.4,3.4,0,0,1,21.7,6.2Zm1.61,16.6H28a6.7,6.7,0,0,0-6.3-4.7,6.3,6.3,0,0,0-2.1.4"
    fill="none"
    stroke="currentColor"
    stroke-width="2"
    stroke-linecap="round"
    stroke-linejoin="round"
  ></path>
</svg>
