<svg role="img" xmlns="http://www.w3.org/2000/svg" aria-hidden="true" viewBox="0 0 32 32">
  <title>Toggle grid</title>
  <path
    d="M13.16,4H4.54A.54.54,0,0,0,4,4.54v8.62a.54.54,0,0,0,.54.54h8.62a.54.54,0,0,0,.54-.54V4.54A.54.54,0,0,0,13.16,4Zm14.3,0H18.84a.54.54,0,0,0-.54.54v8.62a.54.54,0,0,0,.54.54h8.62a.54.54,0,0,0,.54-.54V4.54A.54.54,0,0,0,27.46,4ZM13.16,18.3H4.54a.54.54,0,0,0-.54.54v8.62a.54.54,0,0,0,.54.54h8.62a.54.54,0,0,0,.54-.54V18.84A.54.54,0,0,0,13.16,18.3Zm14.3,0H18.84a.54.54,0,0,0-.54.54v8.62a.54.54,0,0,0,.54.54h8.62a.54.54,0,0,0,.54-.54V18.84A.54.54,0,0,0,27.46,18.3Z"
    fill="none"
    stroke="currentColor"
    stroke-width="2"
    stroke-linecap="round"
    stroke-linejoin="round"
  ></path>
</svg>
