<svg role="img" xmlns="http://www.w3.org/2000/svg" aria-hidden="true" viewBox="0 0 32 32">
    <title>Vector</title>
    <path d="M11.66 24.61l.92-13.74L20.69 8l4 3.05-.16 8.82zM4 17.93a3.34 3.34 0 01.67 4.67h0a3.31 3.31 0 00.67 4.63l.15.11a3.3 3.3 0 004.63-.67h0l7.45-10m.62-.81A1 1 0 1017 17.51a1 1 0 001.23-1.64zm9.33-8.64l-4-3a1.59 1.59 0 00-2.31 1L20.69 8l4 3 2.45-1.26a1.59 1.59 0 00.38-2.51z" fill="none" stroke="currentColor" stroke-width="2" stroke-linecap="round" stroke-linejoin="round"></path>
</svg>